G04 #@! TF.GenerationSoftware,KiCad,Pcbnew,5.1.2-f72e74a~84~ubuntu18.04.1*
G04 #@! TF.CreationDate,2019-09-15T12:12:38+02:00*
G04 #@! TF.ProjectId,Xt30_Hub,58743330-5f48-4756-922e-6b696361645f,rev?*
G04 #@! TF.SameCoordinates,Original*
G04 #@! TF.FileFunction,Legend,Top*
G04 #@! TF.FilePolarity,Positive*
%FSLAX46Y46*%
G04 Gerber Fmt 4.6, Leading zero omitted, Abs format (unit mm)*
G04 Created by KiCad (PCBNEW 5.1.2-f72e74a~84~ubuntu18.04.1) date 2019-09-15 12:12:38*
%MOMM*%
%LPD*%
G04 APERTURE LIST*
%ADD10C,0.150000*%
%ADD11C,0.120000*%
G04 APERTURE END LIST*
D10*
X159816952Y-93922904D02*
X160083619Y-94722904D01*
X160350285Y-93922904D01*
X161036000Y-94722904D02*
X160578857Y-94722904D01*
X160807428Y-94722904D02*
X160807428Y-93922904D01*
X160731238Y-94037190D01*
X160655047Y-94113380D01*
X160578857Y-94151476D01*
X161378857Y-94646714D02*
X161416952Y-94684809D01*
X161378857Y-94722904D01*
X161340761Y-94684809D01*
X161378857Y-94646714D01*
X161378857Y-94722904D01*
X161912190Y-93922904D02*
X161988380Y-93922904D01*
X162064571Y-93961000D01*
X162102666Y-93999095D01*
X162140761Y-94075285D01*
X162178857Y-94227666D01*
X162178857Y-94418142D01*
X162140761Y-94570523D01*
X162102666Y-94646714D01*
X162064571Y-94684809D01*
X161988380Y-94722904D01*
X161912190Y-94722904D01*
X161836000Y-94684809D01*
X161797904Y-94646714D01*
X161759809Y-94570523D01*
X161721714Y-94418142D01*
X161721714Y-94227666D01*
X161759809Y-94075285D01*
X161797904Y-93999095D01*
X161836000Y-93961000D01*
X161912190Y-93922904D01*
X158236000Y-93071904D02*
X158236000Y-92271904D01*
X158236000Y-92652857D02*
X158693142Y-92652857D01*
X158693142Y-93071904D02*
X158693142Y-92271904D01*
X159074095Y-92271904D02*
X159074095Y-92919523D01*
X159112190Y-92995714D01*
X159150285Y-93033809D01*
X159226476Y-93071904D01*
X159378857Y-93071904D01*
X159455047Y-93033809D01*
X159493142Y-92995714D01*
X159531238Y-92919523D01*
X159531238Y-92271904D01*
X160178857Y-92652857D02*
X160293142Y-92690952D01*
X160331238Y-92729047D01*
X160369333Y-92805238D01*
X160369333Y-92919523D01*
X160331238Y-92995714D01*
X160293142Y-93033809D01*
X160216952Y-93071904D01*
X159912190Y-93071904D01*
X159912190Y-92271904D01*
X160178857Y-92271904D01*
X160255047Y-92310000D01*
X160293142Y-92348095D01*
X160331238Y-92424285D01*
X160331238Y-92500476D01*
X160293142Y-92576666D01*
X160255047Y-92614761D01*
X160178857Y-92652857D01*
X159912190Y-92652857D01*
X160521714Y-93148095D02*
X161131238Y-93148095D01*
X161245523Y-92271904D02*
X161778857Y-93071904D01*
X161778857Y-92271904D02*
X161245523Y-93071904D01*
X161969333Y-92271904D02*
X162426476Y-92271904D01*
X162197904Y-93071904D02*
X162197904Y-92271904D01*
X162616952Y-92271904D02*
X163112190Y-92271904D01*
X162845523Y-92576666D01*
X162959809Y-92576666D01*
X163036000Y-92614761D01*
X163074095Y-92652857D01*
X163112190Y-92729047D01*
X163112190Y-92919523D01*
X163074095Y-92995714D01*
X163036000Y-93033809D01*
X162959809Y-93071904D01*
X162731238Y-93071904D01*
X162655047Y-93033809D01*
X162616952Y-92995714D01*
X163607428Y-92271904D02*
X163683619Y-92271904D01*
X163759809Y-92310000D01*
X163797904Y-92348095D01*
X163836000Y-92424285D01*
X163874095Y-92576666D01*
X163874095Y-92767142D01*
X163836000Y-92919523D01*
X163797904Y-92995714D01*
X163759809Y-93033809D01*
X163683619Y-93071904D01*
X163607428Y-93071904D01*
X163531238Y-93033809D01*
X163493142Y-92995714D01*
X163455047Y-92919523D01*
X163416952Y-92767142D01*
X163416952Y-92576666D01*
X163455047Y-92424285D01*
X163493142Y-92348095D01*
X163531238Y-92310000D01*
X163607428Y-92271904D01*
D11*
X129715000Y-94480000D02*
X133600000Y-94480000D01*
X133600000Y-94480000D02*
X133600000Y-92210000D01*
X133600000Y-92210000D02*
X129715000Y-92210000D01*
X134730201Y-88379801D02*
X134730201Y-91199801D01*
X134730201Y-91199801D02*
X136430201Y-92499801D01*
X134730201Y-88379801D02*
X136430201Y-87079801D01*
X136430201Y-92499801D02*
X145150201Y-92499801D01*
X145150201Y-87079801D02*
X145150201Y-92499801D01*
X136430201Y-87079801D02*
X145150201Y-87079801D01*
X134730201Y-95883801D02*
X134730201Y-98703801D01*
X134730201Y-98703801D02*
X136430201Y-100003801D01*
X134730201Y-95883801D02*
X136430201Y-94583801D01*
X136430201Y-100003801D02*
X145150201Y-100003801D01*
X145150201Y-94583801D02*
X145150201Y-100003801D01*
X136430201Y-94583801D02*
X145150201Y-94583801D01*
X157861201Y-91199801D02*
X157861201Y-88379801D01*
X157861201Y-88379801D02*
X156161201Y-87079801D01*
X157861201Y-91199801D02*
X156161201Y-92499801D01*
X156161201Y-87079801D02*
X147441201Y-87079801D01*
X147441201Y-92499801D02*
X147441201Y-87079801D01*
X156161201Y-92499801D02*
X147441201Y-92499801D01*
X156161201Y-100003801D02*
X147441201Y-100003801D01*
X147441201Y-100003801D02*
X147441201Y-94583801D01*
X156161201Y-94583801D02*
X147441201Y-94583801D01*
X157861201Y-98703801D02*
X156161201Y-100003801D01*
X157861201Y-95883801D02*
X156161201Y-94583801D01*
X157861201Y-98703801D02*
X157861201Y-95883801D01*
D10*
X134082104Y-93848180D02*
X134082104Y-92848180D01*
X134320200Y-92848180D01*
X134463057Y-92895800D01*
X134558295Y-92991038D01*
X134605914Y-93086276D01*
X134653533Y-93276752D01*
X134653533Y-93419609D01*
X134605914Y-93610085D01*
X134558295Y-93705323D01*
X134463057Y-93800561D01*
X134320200Y-93848180D01*
X134082104Y-93848180D01*
X135605914Y-93848180D02*
X135034485Y-93848180D01*
X135320200Y-93848180D02*
X135320200Y-92848180D01*
X135224961Y-92991038D01*
X135129723Y-93086276D01*
X135034485Y-93133895D01*
X143573571Y-87864142D02*
X144716428Y-87864142D01*
X144145000Y-88435571D02*
X144145000Y-87292714D01*
X133845371Y-86924342D02*
X134988228Y-86924342D01*
X133896171Y-100233942D02*
X135039028Y-100233942D01*
X143827571Y-99294142D02*
X144970428Y-99294142D01*
X144399000Y-99865571D02*
X144399000Y-98722714D01*
X157543571Y-86848142D02*
X158686428Y-86848142D01*
X145732571Y-93706142D02*
X146875428Y-93706142D01*
X146304000Y-94277571D02*
X146304000Y-93134714D01*
X147764571Y-99167142D02*
X148907428Y-99167142D01*
X148336000Y-99738571D02*
X148336000Y-98595714D01*
X157670571Y-100183142D02*
X158813428Y-100183142D01*
M02*
