G04 #@! TF.GenerationSoftware,KiCad,Pcbnew,5.1.2-f72e74a~84~ubuntu18.04.1*
G04 #@! TF.CreationDate,2019-09-15T12:12:38+02:00*
G04 #@! TF.ProjectId,Xt30_Hub,58743330-5f48-4756-922e-6b696361645f,rev?*
G04 #@! TF.SameCoordinates,Original*
G04 #@! TF.FileFunction,Paste,Top*
G04 #@! TF.FilePolarity,Positive*
%FSLAX46Y46*%
G04 Gerber Fmt 4.6, Leading zero omitted, Abs format (unit mm)*
G04 Created by KiCad (PCBNEW 5.1.2-f72e74a~84~ubuntu18.04.1) date 2019-09-15 12:12:38*
%MOMM*%
%LPD*%
G04 APERTURE LIST*
%ADD10C,0.100000*%
%ADD11C,1.250000*%
G04 APERTURE END LIST*
D10*
G36*
X133114504Y-92471204D02*
G01*
X133138773Y-92474804D01*
X133162571Y-92480765D01*
X133185671Y-92489030D01*
X133207849Y-92499520D01*
X133228893Y-92512133D01*
X133248598Y-92526747D01*
X133266777Y-92543223D01*
X133283253Y-92561402D01*
X133297867Y-92581107D01*
X133310480Y-92602151D01*
X133320970Y-92624329D01*
X133329235Y-92647429D01*
X133335196Y-92671227D01*
X133338796Y-92695496D01*
X133340000Y-92720000D01*
X133340000Y-93970000D01*
X133338796Y-93994504D01*
X133335196Y-94018773D01*
X133329235Y-94042571D01*
X133320970Y-94065671D01*
X133310480Y-94087849D01*
X133297867Y-94108893D01*
X133283253Y-94128598D01*
X133266777Y-94146777D01*
X133248598Y-94163253D01*
X133228893Y-94177867D01*
X133207849Y-94190480D01*
X133185671Y-94200970D01*
X133162571Y-94209235D01*
X133138773Y-94215196D01*
X133114504Y-94218796D01*
X133090000Y-94220000D01*
X132340000Y-94220000D01*
X132315496Y-94218796D01*
X132291227Y-94215196D01*
X132267429Y-94209235D01*
X132244329Y-94200970D01*
X132222151Y-94190480D01*
X132201107Y-94177867D01*
X132181402Y-94163253D01*
X132163223Y-94146777D01*
X132146747Y-94128598D01*
X132132133Y-94108893D01*
X132119520Y-94087849D01*
X132109030Y-94065671D01*
X132100765Y-94042571D01*
X132094804Y-94018773D01*
X132091204Y-93994504D01*
X132090000Y-93970000D01*
X132090000Y-92720000D01*
X132091204Y-92695496D01*
X132094804Y-92671227D01*
X132100765Y-92647429D01*
X132109030Y-92624329D01*
X132119520Y-92602151D01*
X132132133Y-92581107D01*
X132146747Y-92561402D01*
X132163223Y-92543223D01*
X132181402Y-92526747D01*
X132201107Y-92512133D01*
X132222151Y-92499520D01*
X132244329Y-92489030D01*
X132267429Y-92480765D01*
X132291227Y-92474804D01*
X132315496Y-92471204D01*
X132340000Y-92470000D01*
X133090000Y-92470000D01*
X133114504Y-92471204D01*
X133114504Y-92471204D01*
G37*
D11*
X132715000Y-93345000D03*
D10*
G36*
X130314504Y-92471204D02*
G01*
X130338773Y-92474804D01*
X130362571Y-92480765D01*
X130385671Y-92489030D01*
X130407849Y-92499520D01*
X130428893Y-92512133D01*
X130448598Y-92526747D01*
X130466777Y-92543223D01*
X130483253Y-92561402D01*
X130497867Y-92581107D01*
X130510480Y-92602151D01*
X130520970Y-92624329D01*
X130529235Y-92647429D01*
X130535196Y-92671227D01*
X130538796Y-92695496D01*
X130540000Y-92720000D01*
X130540000Y-93970000D01*
X130538796Y-93994504D01*
X130535196Y-94018773D01*
X130529235Y-94042571D01*
X130520970Y-94065671D01*
X130510480Y-94087849D01*
X130497867Y-94108893D01*
X130483253Y-94128598D01*
X130466777Y-94146777D01*
X130448598Y-94163253D01*
X130428893Y-94177867D01*
X130407849Y-94190480D01*
X130385671Y-94200970D01*
X130362571Y-94209235D01*
X130338773Y-94215196D01*
X130314504Y-94218796D01*
X130290000Y-94220000D01*
X129540000Y-94220000D01*
X129515496Y-94218796D01*
X129491227Y-94215196D01*
X129467429Y-94209235D01*
X129444329Y-94200970D01*
X129422151Y-94190480D01*
X129401107Y-94177867D01*
X129381402Y-94163253D01*
X129363223Y-94146777D01*
X129346747Y-94128598D01*
X129332133Y-94108893D01*
X129319520Y-94087849D01*
X129309030Y-94065671D01*
X129300765Y-94042571D01*
X129294804Y-94018773D01*
X129291204Y-93994504D01*
X129290000Y-93970000D01*
X129290000Y-92720000D01*
X129291204Y-92695496D01*
X129294804Y-92671227D01*
X129300765Y-92647429D01*
X129309030Y-92624329D01*
X129319520Y-92602151D01*
X129332133Y-92581107D01*
X129346747Y-92561402D01*
X129363223Y-92543223D01*
X129381402Y-92526747D01*
X129401107Y-92512133D01*
X129422151Y-92499520D01*
X129444329Y-92489030D01*
X129467429Y-92480765D01*
X129491227Y-92474804D01*
X129515496Y-92471204D01*
X129540000Y-92470000D01*
X130290000Y-92470000D01*
X130314504Y-92471204D01*
X130314504Y-92471204D01*
G37*
D11*
X129915000Y-93345000D03*
M02*
