G04 #@! TF.GenerationSoftware,KiCad,Pcbnew,5.1.2-f72e74a~84~ubuntu18.04.1*
G04 #@! TF.CreationDate,2019-09-15T12:12:38+02:00*
G04 #@! TF.ProjectId,Xt30_Hub,58743330-5f48-4756-922e-6b696361645f,rev?*
G04 #@! TF.SameCoordinates,Original*
G04 #@! TF.FileFunction,Copper,L2,Bot*
G04 #@! TF.FilePolarity,Positive*
%FSLAX46Y46*%
G04 Gerber Fmt 4.6, Leading zero omitted, Abs format (unit mm)*
G04 Created by KiCad (PCBNEW 5.1.2-f72e74a~84~ubuntu18.04.1) date 2019-09-15 12:12:38*
%MOMM*%
%LPD*%
G04 APERTURE LIST*
%ADD10C,3.000000*%
%ADD11R,3.000000X3.000000*%
%ADD12C,0.100000*%
%ADD13C,1.250000*%
%ADD14C,0.800000*%
%ADD15C,1.000000*%
%ADD16C,3.000000*%
%ADD17C,0.750000*%
G04 APERTURE END LIST*
D10*
X142440201Y-89789801D03*
D11*
X137440201Y-89789801D03*
D10*
X142440201Y-97293801D03*
D11*
X137440201Y-97293801D03*
D10*
X150151201Y-89789801D03*
D11*
X155151201Y-89789801D03*
X155151201Y-97293801D03*
D10*
X150151201Y-97293801D03*
D12*
G36*
X133120504Y-92522004D02*
G01*
X133144773Y-92525604D01*
X133168571Y-92531565D01*
X133191671Y-92539830D01*
X133213849Y-92550320D01*
X133234893Y-92562933D01*
X133254598Y-92577547D01*
X133272777Y-92594023D01*
X133289253Y-92612202D01*
X133303867Y-92631907D01*
X133316480Y-92652951D01*
X133326970Y-92675129D01*
X133335235Y-92698229D01*
X133341196Y-92722027D01*
X133344796Y-92746296D01*
X133346000Y-92770800D01*
X133346000Y-94020800D01*
X133344796Y-94045304D01*
X133341196Y-94069573D01*
X133335235Y-94093371D01*
X133326970Y-94116471D01*
X133316480Y-94138649D01*
X133303867Y-94159693D01*
X133289253Y-94179398D01*
X133272777Y-94197577D01*
X133254598Y-94214053D01*
X133234893Y-94228667D01*
X133213849Y-94241280D01*
X133191671Y-94251770D01*
X133168571Y-94260035D01*
X133144773Y-94265996D01*
X133120504Y-94269596D01*
X133096000Y-94270800D01*
X132346000Y-94270800D01*
X132321496Y-94269596D01*
X132297227Y-94265996D01*
X132273429Y-94260035D01*
X132250329Y-94251770D01*
X132228151Y-94241280D01*
X132207107Y-94228667D01*
X132187402Y-94214053D01*
X132169223Y-94197577D01*
X132152747Y-94179398D01*
X132138133Y-94159693D01*
X132125520Y-94138649D01*
X132115030Y-94116471D01*
X132106765Y-94093371D01*
X132100804Y-94069573D01*
X132097204Y-94045304D01*
X132096000Y-94020800D01*
X132096000Y-92770800D01*
X132097204Y-92746296D01*
X132100804Y-92722027D01*
X132106765Y-92698229D01*
X132115030Y-92675129D01*
X132125520Y-92652951D01*
X132138133Y-92631907D01*
X132152747Y-92612202D01*
X132169223Y-92594023D01*
X132187402Y-92577547D01*
X132207107Y-92562933D01*
X132228151Y-92550320D01*
X132250329Y-92539830D01*
X132273429Y-92531565D01*
X132297227Y-92525604D01*
X132321496Y-92522004D01*
X132346000Y-92520800D01*
X133096000Y-92520800D01*
X133120504Y-92522004D01*
X133120504Y-92522004D01*
G37*
D13*
X132721000Y-93395800D03*
D12*
G36*
X130320504Y-92471204D02*
G01*
X130344773Y-92474804D01*
X130368571Y-92480765D01*
X130391671Y-92489030D01*
X130413849Y-92499520D01*
X130434893Y-92512133D01*
X130454598Y-92526747D01*
X130472777Y-92543223D01*
X130489253Y-92561402D01*
X130503867Y-92581107D01*
X130516480Y-92602151D01*
X130526970Y-92624329D01*
X130535235Y-92647429D01*
X130541196Y-92671227D01*
X130544796Y-92695496D01*
X130546000Y-92720000D01*
X130546000Y-93970000D01*
X130544796Y-93994504D01*
X130541196Y-94018773D01*
X130535235Y-94042571D01*
X130526970Y-94065671D01*
X130516480Y-94087849D01*
X130503867Y-94108893D01*
X130489253Y-94128598D01*
X130472777Y-94146777D01*
X130454598Y-94163253D01*
X130434893Y-94177867D01*
X130413849Y-94190480D01*
X130391671Y-94200970D01*
X130368571Y-94209235D01*
X130344773Y-94215196D01*
X130320504Y-94218796D01*
X130296000Y-94220000D01*
X129546000Y-94220000D01*
X129521496Y-94218796D01*
X129497227Y-94215196D01*
X129473429Y-94209235D01*
X129450329Y-94200970D01*
X129428151Y-94190480D01*
X129407107Y-94177867D01*
X129387402Y-94163253D01*
X129369223Y-94146777D01*
X129352747Y-94128598D01*
X129338133Y-94108893D01*
X129325520Y-94087849D01*
X129315030Y-94065671D01*
X129306765Y-94042571D01*
X129300804Y-94018773D01*
X129297204Y-93994504D01*
X129296000Y-93970000D01*
X129296000Y-92720000D01*
X129297204Y-92695496D01*
X129300804Y-92671227D01*
X129306765Y-92647429D01*
X129315030Y-92624329D01*
X129325520Y-92602151D01*
X129338133Y-92581107D01*
X129352747Y-92561402D01*
X129369223Y-92543223D01*
X129387402Y-92526747D01*
X129407107Y-92512133D01*
X129428151Y-92499520D01*
X129450329Y-92489030D01*
X129473429Y-92480765D01*
X129497227Y-92474804D01*
X129521496Y-92471204D01*
X129546000Y-92470000D01*
X130296000Y-92470000D01*
X130320504Y-92471204D01*
X130320504Y-92471204D01*
G37*
D13*
X129921000Y-93345000D03*
D14*
X128651000Y-93345000D03*
D15*
X129921000Y-93345000D02*
X128651000Y-93345000D01*
X132721000Y-93395800D02*
X142036800Y-93395800D01*
X142440201Y-92992399D02*
X142440201Y-89789801D01*
X142036800Y-93395800D02*
X142440201Y-92992399D01*
D16*
X142440201Y-89789801D02*
X142647201Y-89789801D01*
X142647201Y-97293801D02*
X150151201Y-89789801D01*
X142440201Y-97293801D02*
X142647201Y-97293801D01*
X142440201Y-89789801D02*
X142440201Y-97293801D01*
X150151201Y-89789801D02*
X150151201Y-97293801D01*
X142440201Y-95049799D02*
X145173700Y-92316300D01*
X142440201Y-97293801D02*
X142440201Y-95049799D01*
X142647201Y-89789801D02*
X145173700Y-92316300D01*
X150151201Y-97293801D02*
X147332700Y-94475300D01*
X145173700Y-92316300D02*
X147332700Y-94475300D01*
X142440201Y-97293801D02*
X144641199Y-97293801D01*
X147332700Y-92608302D02*
X147332700Y-94475300D01*
X150151201Y-89789801D02*
X147332700Y-92608302D01*
X145796801Y-91693199D02*
X145173700Y-92316300D01*
X145796801Y-89789801D02*
X145796801Y-91693199D01*
X145796801Y-89789801D02*
X150151201Y-89789801D01*
X142440201Y-89789801D02*
X145796801Y-89789801D01*
X146165199Y-95642801D02*
X147332700Y-94475300D01*
X146165199Y-97293801D02*
X146165199Y-95642801D01*
X146165199Y-97293801D02*
X144641199Y-97293801D01*
X150151201Y-97293801D02*
X146165199Y-97293801D01*
D17*
G36*
X160315899Y-87144854D02*
G01*
X159992054Y-87468699D01*
X159737611Y-87849499D01*
X159562348Y-88272622D01*
X159473000Y-88721807D01*
X159473000Y-89179793D01*
X159562348Y-89628978D01*
X159737611Y-90052101D01*
X159992054Y-90432901D01*
X160315899Y-90756746D01*
X160696699Y-91011189D01*
X161119822Y-91186452D01*
X161569007Y-91275800D01*
X162026993Y-91275800D01*
X162476178Y-91186452D01*
X162899301Y-91011189D01*
X163280101Y-90756746D01*
X163603946Y-90432901D01*
X163721001Y-90257717D01*
X163721000Y-96660883D01*
X163603946Y-96485699D01*
X163280101Y-96161854D01*
X162899301Y-95907411D01*
X162476178Y-95732148D01*
X162026993Y-95642800D01*
X161569007Y-95642800D01*
X161119822Y-95732148D01*
X160696699Y-95907411D01*
X160315899Y-96161854D01*
X159992054Y-96485699D01*
X159737611Y-96866499D01*
X159562348Y-97289622D01*
X159473000Y-97738807D01*
X159473000Y-98196793D01*
X159562348Y-98645978D01*
X159737611Y-99069101D01*
X159992054Y-99449901D01*
X160315899Y-99773746D01*
X160605123Y-99967000D01*
X131698077Y-99967000D01*
X131987301Y-99773746D01*
X132311146Y-99449901D01*
X132565589Y-99069101D01*
X132740852Y-98645978D01*
X132830200Y-98196793D01*
X132830200Y-97738807D01*
X132740852Y-97289622D01*
X132565589Y-96866499D01*
X132311146Y-96485699D01*
X131987301Y-96161854D01*
X131606501Y-95907411D01*
X131183378Y-95732148D01*
X130734193Y-95642800D01*
X130276207Y-95642800D01*
X129827022Y-95732148D01*
X129403899Y-95907411D01*
X129023099Y-96161854D01*
X128699254Y-96485699D01*
X128633000Y-96584855D01*
X128633000Y-94933240D01*
X128806980Y-95076022D01*
X129036954Y-95198945D01*
X129286491Y-95274642D01*
X129546000Y-95300201D01*
X130296000Y-95300201D01*
X130555509Y-95274642D01*
X130805046Y-95198945D01*
X131035020Y-95076022D01*
X131236594Y-94910594D01*
X131300155Y-94833145D01*
X131405406Y-94961394D01*
X131606980Y-95126822D01*
X131836954Y-95249745D01*
X132086491Y-95325442D01*
X132346000Y-95351001D01*
X133096000Y-95351001D01*
X133355509Y-95325442D01*
X133605046Y-95249745D01*
X133835020Y-95126822D01*
X134025133Y-94970800D01*
X139860523Y-94970800D01*
X139852742Y-95049799D01*
X139865201Y-95176296D01*
X139865201Y-97167302D01*
X139852742Y-97293801D01*
X139865201Y-97420299D01*
X139865201Y-97547416D01*
X139890000Y-97672088D01*
X139902459Y-97798589D01*
X139939358Y-97920229D01*
X139964157Y-98044901D01*
X140012803Y-98162342D01*
X140049701Y-98283979D01*
X140109621Y-98396082D01*
X140158266Y-98513521D01*
X140228886Y-98619211D01*
X140288807Y-98731316D01*
X140369447Y-98829576D01*
X140440068Y-98935268D01*
X140529953Y-99025153D01*
X140610591Y-99123411D01*
X140708849Y-99204049D01*
X140798734Y-99293934D01*
X140904426Y-99364555D01*
X141002686Y-99445195D01*
X141114791Y-99505116D01*
X141220481Y-99575736D01*
X141337920Y-99624381D01*
X141450023Y-99684301D01*
X141571660Y-99721199D01*
X141689101Y-99769845D01*
X141813773Y-99794644D01*
X141935413Y-99831543D01*
X142061914Y-99844002D01*
X142186586Y-99868801D01*
X142313702Y-99868801D01*
X142440201Y-99881260D01*
X142543702Y-99871066D01*
X142647201Y-99881260D01*
X142773698Y-99868801D01*
X146038700Y-99868801D01*
X146165199Y-99881260D01*
X146291698Y-99868801D01*
X150024702Y-99868801D01*
X150096051Y-99875828D01*
X150151200Y-99881260D01*
X150151201Y-99881260D01*
X150277700Y-99868801D01*
X150404816Y-99868801D01*
X150529488Y-99844002D01*
X150655989Y-99831543D01*
X150777629Y-99794644D01*
X150902301Y-99769845D01*
X151019742Y-99721199D01*
X151141379Y-99684301D01*
X151253482Y-99624381D01*
X151370921Y-99575736D01*
X151476611Y-99505116D01*
X151588716Y-99445195D01*
X151686976Y-99364555D01*
X151792668Y-99293934D01*
X151882553Y-99204049D01*
X151980811Y-99123411D01*
X152061450Y-99025152D01*
X152151334Y-98935268D01*
X152221955Y-98829576D01*
X152302595Y-98731316D01*
X152362516Y-98619211D01*
X152433136Y-98513521D01*
X152481781Y-98396082D01*
X152541701Y-98283979D01*
X152578599Y-98162342D01*
X152627245Y-98044901D01*
X152652044Y-97920229D01*
X152688943Y-97798589D01*
X152701402Y-97672088D01*
X152726201Y-97547416D01*
X152726201Y-97420299D01*
X152738660Y-97293801D01*
X152726201Y-97167302D01*
X152726201Y-89916300D01*
X152738660Y-89789801D01*
X152726201Y-89663302D01*
X152726201Y-89536186D01*
X152701402Y-89411514D01*
X152688943Y-89285013D01*
X152652044Y-89163374D01*
X152627245Y-89038701D01*
X152578599Y-88921260D01*
X152541701Y-88799623D01*
X152481781Y-88687520D01*
X152433136Y-88570081D01*
X152362516Y-88464391D01*
X152302595Y-88352286D01*
X152221955Y-88254026D01*
X152151334Y-88148334D01*
X152061450Y-88058450D01*
X151980811Y-87960191D01*
X151882552Y-87879552D01*
X151792668Y-87789668D01*
X151686976Y-87719047D01*
X151588716Y-87638407D01*
X151476611Y-87578486D01*
X151370921Y-87507866D01*
X151253482Y-87459221D01*
X151141379Y-87399301D01*
X151019742Y-87362403D01*
X150902301Y-87313757D01*
X150777629Y-87288958D01*
X150655989Y-87252059D01*
X150529488Y-87239600D01*
X150404816Y-87214801D01*
X150277700Y-87214801D01*
X150151201Y-87202342D01*
X150151200Y-87202342D01*
X150105941Y-87206800D01*
X150024702Y-87214801D01*
X145923300Y-87214801D01*
X145796801Y-87202342D01*
X145670302Y-87214801D01*
X142773698Y-87214801D01*
X142647201Y-87202342D01*
X142543702Y-87212536D01*
X142440201Y-87202342D01*
X142313702Y-87214801D01*
X142186586Y-87214801D01*
X142061914Y-87239600D01*
X141935413Y-87252059D01*
X141813773Y-87288958D01*
X141689101Y-87313757D01*
X141571660Y-87362403D01*
X141450023Y-87399301D01*
X141337920Y-87459221D01*
X141220481Y-87507866D01*
X141114791Y-87578486D01*
X141002686Y-87638407D01*
X140904426Y-87719047D01*
X140798734Y-87789668D01*
X140708850Y-87879552D01*
X140610591Y-87960191D01*
X140529952Y-88058450D01*
X140440068Y-88148334D01*
X140369447Y-88254026D01*
X140288807Y-88352286D01*
X140228886Y-88464391D01*
X140158266Y-88570081D01*
X140109621Y-88687520D01*
X140049701Y-88799623D01*
X140012803Y-88921260D01*
X139964157Y-89038701D01*
X139939358Y-89163373D01*
X139902459Y-89285013D01*
X139890000Y-89411514D01*
X139865201Y-89536186D01*
X139865201Y-89663302D01*
X139852742Y-89789801D01*
X139865201Y-89916300D01*
X139865201Y-91820800D01*
X134025133Y-91820800D01*
X133835020Y-91664778D01*
X133605046Y-91541855D01*
X133355509Y-91466158D01*
X133096000Y-91440599D01*
X132346000Y-91440599D01*
X132086491Y-91466158D01*
X131836954Y-91541855D01*
X131606980Y-91664778D01*
X131405406Y-91830206D01*
X131341845Y-91907655D01*
X131236594Y-91779406D01*
X131035020Y-91613978D01*
X130805046Y-91491055D01*
X130555509Y-91415358D01*
X130296000Y-91389799D01*
X129546000Y-91389799D01*
X129286491Y-91415358D01*
X129036954Y-91491055D01*
X128806980Y-91613978D01*
X128633000Y-91756760D01*
X128633000Y-90333745D01*
X128699254Y-90432901D01*
X129023099Y-90756746D01*
X129403899Y-91011189D01*
X129827022Y-91186452D01*
X130276207Y-91275800D01*
X130734193Y-91275800D01*
X131183378Y-91186452D01*
X131606501Y-91011189D01*
X131987301Y-90756746D01*
X132311146Y-90432901D01*
X132565589Y-90052101D01*
X132740852Y-89628978D01*
X132830200Y-89179793D01*
X132830200Y-88721807D01*
X132740852Y-88272622D01*
X132565589Y-87849499D01*
X132311146Y-87468699D01*
X131987301Y-87144854D01*
X131926159Y-87104000D01*
X160377041Y-87104000D01*
X160315899Y-87144854D01*
X160315899Y-87144854D01*
G37*
X160315899Y-87144854D02*
X159992054Y-87468699D01*
X159737611Y-87849499D01*
X159562348Y-88272622D01*
X159473000Y-88721807D01*
X159473000Y-89179793D01*
X159562348Y-89628978D01*
X159737611Y-90052101D01*
X159992054Y-90432901D01*
X160315899Y-90756746D01*
X160696699Y-91011189D01*
X161119822Y-91186452D01*
X161569007Y-91275800D01*
X162026993Y-91275800D01*
X162476178Y-91186452D01*
X162899301Y-91011189D01*
X163280101Y-90756746D01*
X163603946Y-90432901D01*
X163721001Y-90257717D01*
X163721000Y-96660883D01*
X163603946Y-96485699D01*
X163280101Y-96161854D01*
X162899301Y-95907411D01*
X162476178Y-95732148D01*
X162026993Y-95642800D01*
X161569007Y-95642800D01*
X161119822Y-95732148D01*
X160696699Y-95907411D01*
X160315899Y-96161854D01*
X159992054Y-96485699D01*
X159737611Y-96866499D01*
X159562348Y-97289622D01*
X159473000Y-97738807D01*
X159473000Y-98196793D01*
X159562348Y-98645978D01*
X159737611Y-99069101D01*
X159992054Y-99449901D01*
X160315899Y-99773746D01*
X160605123Y-99967000D01*
X131698077Y-99967000D01*
X131987301Y-99773746D01*
X132311146Y-99449901D01*
X132565589Y-99069101D01*
X132740852Y-98645978D01*
X132830200Y-98196793D01*
X132830200Y-97738807D01*
X132740852Y-97289622D01*
X132565589Y-96866499D01*
X132311146Y-96485699D01*
X131987301Y-96161854D01*
X131606501Y-95907411D01*
X131183378Y-95732148D01*
X130734193Y-95642800D01*
X130276207Y-95642800D01*
X129827022Y-95732148D01*
X129403899Y-95907411D01*
X129023099Y-96161854D01*
X128699254Y-96485699D01*
X128633000Y-96584855D01*
X128633000Y-94933240D01*
X128806980Y-95076022D01*
X129036954Y-95198945D01*
X129286491Y-95274642D01*
X129546000Y-95300201D01*
X130296000Y-95300201D01*
X130555509Y-95274642D01*
X130805046Y-95198945D01*
X131035020Y-95076022D01*
X131236594Y-94910594D01*
X131300155Y-94833145D01*
X131405406Y-94961394D01*
X131606980Y-95126822D01*
X131836954Y-95249745D01*
X132086491Y-95325442D01*
X132346000Y-95351001D01*
X133096000Y-95351001D01*
X133355509Y-95325442D01*
X133605046Y-95249745D01*
X133835020Y-95126822D01*
X134025133Y-94970800D01*
X139860523Y-94970800D01*
X139852742Y-95049799D01*
X139865201Y-95176296D01*
X139865201Y-97167302D01*
X139852742Y-97293801D01*
X139865201Y-97420299D01*
X139865201Y-97547416D01*
X139890000Y-97672088D01*
X139902459Y-97798589D01*
X139939358Y-97920229D01*
X139964157Y-98044901D01*
X140012803Y-98162342D01*
X140049701Y-98283979D01*
X140109621Y-98396082D01*
X140158266Y-98513521D01*
X140228886Y-98619211D01*
X140288807Y-98731316D01*
X140369447Y-98829576D01*
X140440068Y-98935268D01*
X140529953Y-99025153D01*
X140610591Y-99123411D01*
X140708849Y-99204049D01*
X140798734Y-99293934D01*
X140904426Y-99364555D01*
X141002686Y-99445195D01*
X141114791Y-99505116D01*
X141220481Y-99575736D01*
X141337920Y-99624381D01*
X141450023Y-99684301D01*
X141571660Y-99721199D01*
X141689101Y-99769845D01*
X141813773Y-99794644D01*
X141935413Y-99831543D01*
X142061914Y-99844002D01*
X142186586Y-99868801D01*
X142313702Y-99868801D01*
X142440201Y-99881260D01*
X142543702Y-99871066D01*
X142647201Y-99881260D01*
X142773698Y-99868801D01*
X146038700Y-99868801D01*
X146165199Y-99881260D01*
X146291698Y-99868801D01*
X150024702Y-99868801D01*
X150096051Y-99875828D01*
X150151200Y-99881260D01*
X150151201Y-99881260D01*
X150277700Y-99868801D01*
X150404816Y-99868801D01*
X150529488Y-99844002D01*
X150655989Y-99831543D01*
X150777629Y-99794644D01*
X150902301Y-99769845D01*
X151019742Y-99721199D01*
X151141379Y-99684301D01*
X151253482Y-99624381D01*
X151370921Y-99575736D01*
X151476611Y-99505116D01*
X151588716Y-99445195D01*
X151686976Y-99364555D01*
X151792668Y-99293934D01*
X151882553Y-99204049D01*
X151980811Y-99123411D01*
X152061450Y-99025152D01*
X152151334Y-98935268D01*
X152221955Y-98829576D01*
X152302595Y-98731316D01*
X152362516Y-98619211D01*
X152433136Y-98513521D01*
X152481781Y-98396082D01*
X152541701Y-98283979D01*
X152578599Y-98162342D01*
X152627245Y-98044901D01*
X152652044Y-97920229D01*
X152688943Y-97798589D01*
X152701402Y-97672088D01*
X152726201Y-97547416D01*
X152726201Y-97420299D01*
X152738660Y-97293801D01*
X152726201Y-97167302D01*
X152726201Y-89916300D01*
X152738660Y-89789801D01*
X152726201Y-89663302D01*
X152726201Y-89536186D01*
X152701402Y-89411514D01*
X152688943Y-89285013D01*
X152652044Y-89163374D01*
X152627245Y-89038701D01*
X152578599Y-88921260D01*
X152541701Y-88799623D01*
X152481781Y-88687520D01*
X152433136Y-88570081D01*
X152362516Y-88464391D01*
X152302595Y-88352286D01*
X152221955Y-88254026D01*
X152151334Y-88148334D01*
X152061450Y-88058450D01*
X151980811Y-87960191D01*
X151882552Y-87879552D01*
X151792668Y-87789668D01*
X151686976Y-87719047D01*
X151588716Y-87638407D01*
X151476611Y-87578486D01*
X151370921Y-87507866D01*
X151253482Y-87459221D01*
X151141379Y-87399301D01*
X151019742Y-87362403D01*
X150902301Y-87313757D01*
X150777629Y-87288958D01*
X150655989Y-87252059D01*
X150529488Y-87239600D01*
X150404816Y-87214801D01*
X150277700Y-87214801D01*
X150151201Y-87202342D01*
X150151200Y-87202342D01*
X150105941Y-87206800D01*
X150024702Y-87214801D01*
X145923300Y-87214801D01*
X145796801Y-87202342D01*
X145670302Y-87214801D01*
X142773698Y-87214801D01*
X142647201Y-87202342D01*
X142543702Y-87212536D01*
X142440201Y-87202342D01*
X142313702Y-87214801D01*
X142186586Y-87214801D01*
X142061914Y-87239600D01*
X141935413Y-87252059D01*
X141813773Y-87288958D01*
X141689101Y-87313757D01*
X141571660Y-87362403D01*
X141450023Y-87399301D01*
X141337920Y-87459221D01*
X141220481Y-87507866D01*
X141114791Y-87578486D01*
X141002686Y-87638407D01*
X140904426Y-87719047D01*
X140798734Y-87789668D01*
X140708850Y-87879552D01*
X140610591Y-87960191D01*
X140529952Y-88058450D01*
X140440068Y-88148334D01*
X140369447Y-88254026D01*
X140288807Y-88352286D01*
X140228886Y-88464391D01*
X140158266Y-88570081D01*
X140109621Y-88687520D01*
X140049701Y-88799623D01*
X140012803Y-88921260D01*
X139964157Y-89038701D01*
X139939358Y-89163373D01*
X139902459Y-89285013D01*
X139890000Y-89411514D01*
X139865201Y-89536186D01*
X139865201Y-89663302D01*
X139852742Y-89789801D01*
X139865201Y-89916300D01*
X139865201Y-91820800D01*
X134025133Y-91820800D01*
X133835020Y-91664778D01*
X133605046Y-91541855D01*
X133355509Y-91466158D01*
X133096000Y-91440599D01*
X132346000Y-91440599D01*
X132086491Y-91466158D01*
X131836954Y-91541855D01*
X131606980Y-91664778D01*
X131405406Y-91830206D01*
X131341845Y-91907655D01*
X131236594Y-91779406D01*
X131035020Y-91613978D01*
X130805046Y-91491055D01*
X130555509Y-91415358D01*
X130296000Y-91389799D01*
X129546000Y-91389799D01*
X129286491Y-91415358D01*
X129036954Y-91491055D01*
X128806980Y-91613978D01*
X128633000Y-91756760D01*
X128633000Y-90333745D01*
X128699254Y-90432901D01*
X129023099Y-90756746D01*
X129403899Y-91011189D01*
X129827022Y-91186452D01*
X130276207Y-91275800D01*
X130734193Y-91275800D01*
X131183378Y-91186452D01*
X131606501Y-91011189D01*
X131987301Y-90756746D01*
X132311146Y-90432901D01*
X132565589Y-90052101D01*
X132740852Y-89628978D01*
X132830200Y-89179793D01*
X132830200Y-88721807D01*
X132740852Y-88272622D01*
X132565589Y-87849499D01*
X132311146Y-87468699D01*
X131987301Y-87144854D01*
X131926159Y-87104000D01*
X160377041Y-87104000D01*
X160315899Y-87144854D01*
M02*
