G04 #@! TF.GenerationSoftware,KiCad,Pcbnew,5.1.2-f72e74a~84~ubuntu18.04.1*
G04 #@! TF.CreationDate,2019-09-15T12:12:38+02:00*
G04 #@! TF.ProjectId,Xt30_Hub,58743330-5f48-4756-922e-6b696361645f,rev?*
G04 #@! TF.SameCoordinates,Original*
G04 #@! TF.FileFunction,Legend,Bot*
G04 #@! TF.FilePolarity,Positive*
%FSLAX46Y46*%
G04 Gerber Fmt 4.6, Leading zero omitted, Abs format (unit mm)*
G04 Created by KiCad (PCBNEW 5.1.2-f72e74a~84~ubuntu18.04.1) date 2019-09-15 12:12:38*
%MOMM*%
%LPD*%
G04 APERTURE LIST*
%ADD10C,0.120000*%
%ADD11C,0.150000*%
G04 APERTURE END LIST*
D10*
X131923064Y-92485800D02*
X130718936Y-92485800D01*
X131923064Y-94305800D02*
X130718936Y-94305800D01*
D11*
X133437380Y-88947666D02*
X134151666Y-88947666D01*
X134294523Y-88900047D01*
X134389761Y-88804809D01*
X134437380Y-88661952D01*
X134437380Y-88566714D01*
X134437380Y-89947666D02*
X134437380Y-89376238D01*
X134437380Y-89661952D02*
X133437380Y-89661952D01*
X133580238Y-89566714D01*
X133675476Y-89471476D01*
X133723095Y-89376238D01*
X133310380Y-98726666D02*
X134024666Y-98726666D01*
X134167523Y-98679047D01*
X134262761Y-98583809D01*
X134310380Y-98440952D01*
X134310380Y-98345714D01*
X133405619Y-99155238D02*
X133358000Y-99202857D01*
X133310380Y-99298095D01*
X133310380Y-99536190D01*
X133358000Y-99631428D01*
X133405619Y-99679047D01*
X133500857Y-99726666D01*
X133596095Y-99726666D01*
X133738952Y-99679047D01*
X134310380Y-99107619D01*
X134310380Y-99726666D01*
X147067782Y-89838268D02*
X147782068Y-89838268D01*
X147924925Y-89790649D01*
X148020163Y-89695411D01*
X148067782Y-89552554D01*
X148067782Y-89457316D01*
X147067782Y-90219221D02*
X147067782Y-90838268D01*
X147448735Y-90504935D01*
X147448735Y-90647792D01*
X147496354Y-90743030D01*
X147543973Y-90790649D01*
X147639211Y-90838268D01*
X147877306Y-90838268D01*
X147972544Y-90790649D01*
X148020163Y-90743030D01*
X148067782Y-90647792D01*
X148067782Y-90362078D01*
X148020163Y-90266840D01*
X147972544Y-90219221D01*
X147448782Y-95067268D02*
X148163068Y-95067268D01*
X148305925Y-95019649D01*
X148401163Y-94924411D01*
X148448782Y-94781554D01*
X148448782Y-94686316D01*
X147782116Y-95972030D02*
X148448782Y-95972030D01*
X147401163Y-95733935D02*
X148115449Y-95495840D01*
X148115449Y-96114887D01*
X135145266Y-93644980D02*
X135478600Y-93168790D01*
X135716695Y-93644980D02*
X135716695Y-92644980D01*
X135335742Y-92644980D01*
X135240504Y-92692600D01*
X135192885Y-92740219D01*
X135145266Y-92835457D01*
X135145266Y-92978314D01*
X135192885Y-93073552D01*
X135240504Y-93121171D01*
X135335742Y-93168790D01*
X135716695Y-93168790D01*
X134192885Y-93644980D02*
X134764314Y-93644980D01*
X134478600Y-93644980D02*
X134478600Y-92644980D01*
X134573838Y-92787838D01*
X134669076Y-92883076D01*
X134764314Y-92930695D01*
M02*
