G04 #@! TF.GenerationSoftware,KiCad,Pcbnew,5.1.2-f72e74a~84~ubuntu18.04.1*
G04 #@! TF.CreationDate,2019-09-15T12:12:38+02:00*
G04 #@! TF.ProjectId,Xt30_Hub,58743330-5f48-4756-922e-6b696361645f,rev?*
G04 #@! TF.SameCoordinates,Original*
G04 #@! TF.FileFunction,Paste,Bot*
G04 #@! TF.FilePolarity,Positive*
%FSLAX46Y46*%
G04 Gerber Fmt 4.6, Leading zero omitted, Abs format (unit mm)*
G04 Created by KiCad (PCBNEW 5.1.2-f72e74a~84~ubuntu18.04.1) date 2019-09-15 12:12:38*
%MOMM*%
%LPD*%
G04 APERTURE LIST*
%ADD10C,0.100000*%
%ADD11C,1.250000*%
G04 APERTURE END LIST*
D10*
G36*
X133120504Y-92522004D02*
G01*
X133144773Y-92525604D01*
X133168571Y-92531565D01*
X133191671Y-92539830D01*
X133213849Y-92550320D01*
X133234893Y-92562933D01*
X133254598Y-92577547D01*
X133272777Y-92594023D01*
X133289253Y-92612202D01*
X133303867Y-92631907D01*
X133316480Y-92652951D01*
X133326970Y-92675129D01*
X133335235Y-92698229D01*
X133341196Y-92722027D01*
X133344796Y-92746296D01*
X133346000Y-92770800D01*
X133346000Y-94020800D01*
X133344796Y-94045304D01*
X133341196Y-94069573D01*
X133335235Y-94093371D01*
X133326970Y-94116471D01*
X133316480Y-94138649D01*
X133303867Y-94159693D01*
X133289253Y-94179398D01*
X133272777Y-94197577D01*
X133254598Y-94214053D01*
X133234893Y-94228667D01*
X133213849Y-94241280D01*
X133191671Y-94251770D01*
X133168571Y-94260035D01*
X133144773Y-94265996D01*
X133120504Y-94269596D01*
X133096000Y-94270800D01*
X132346000Y-94270800D01*
X132321496Y-94269596D01*
X132297227Y-94265996D01*
X132273429Y-94260035D01*
X132250329Y-94251770D01*
X132228151Y-94241280D01*
X132207107Y-94228667D01*
X132187402Y-94214053D01*
X132169223Y-94197577D01*
X132152747Y-94179398D01*
X132138133Y-94159693D01*
X132125520Y-94138649D01*
X132115030Y-94116471D01*
X132106765Y-94093371D01*
X132100804Y-94069573D01*
X132097204Y-94045304D01*
X132096000Y-94020800D01*
X132096000Y-92770800D01*
X132097204Y-92746296D01*
X132100804Y-92722027D01*
X132106765Y-92698229D01*
X132115030Y-92675129D01*
X132125520Y-92652951D01*
X132138133Y-92631907D01*
X132152747Y-92612202D01*
X132169223Y-92594023D01*
X132187402Y-92577547D01*
X132207107Y-92562933D01*
X132228151Y-92550320D01*
X132250329Y-92539830D01*
X132273429Y-92531565D01*
X132297227Y-92525604D01*
X132321496Y-92522004D01*
X132346000Y-92520800D01*
X133096000Y-92520800D01*
X133120504Y-92522004D01*
X133120504Y-92522004D01*
G37*
D11*
X132721000Y-93395800D03*
D10*
G36*
X130320504Y-92471204D02*
G01*
X130344773Y-92474804D01*
X130368571Y-92480765D01*
X130391671Y-92489030D01*
X130413849Y-92499520D01*
X130434893Y-92512133D01*
X130454598Y-92526747D01*
X130472777Y-92543223D01*
X130489253Y-92561402D01*
X130503867Y-92581107D01*
X130516480Y-92602151D01*
X130526970Y-92624329D01*
X130535235Y-92647429D01*
X130541196Y-92671227D01*
X130544796Y-92695496D01*
X130546000Y-92720000D01*
X130546000Y-93970000D01*
X130544796Y-93994504D01*
X130541196Y-94018773D01*
X130535235Y-94042571D01*
X130526970Y-94065671D01*
X130516480Y-94087849D01*
X130503867Y-94108893D01*
X130489253Y-94128598D01*
X130472777Y-94146777D01*
X130454598Y-94163253D01*
X130434893Y-94177867D01*
X130413849Y-94190480D01*
X130391671Y-94200970D01*
X130368571Y-94209235D01*
X130344773Y-94215196D01*
X130320504Y-94218796D01*
X130296000Y-94220000D01*
X129546000Y-94220000D01*
X129521496Y-94218796D01*
X129497227Y-94215196D01*
X129473429Y-94209235D01*
X129450329Y-94200970D01*
X129428151Y-94190480D01*
X129407107Y-94177867D01*
X129387402Y-94163253D01*
X129369223Y-94146777D01*
X129352747Y-94128598D01*
X129338133Y-94108893D01*
X129325520Y-94087849D01*
X129315030Y-94065671D01*
X129306765Y-94042571D01*
X129300804Y-94018773D01*
X129297204Y-93994504D01*
X129296000Y-93970000D01*
X129296000Y-92720000D01*
X129297204Y-92695496D01*
X129300804Y-92671227D01*
X129306765Y-92647429D01*
X129315030Y-92624329D01*
X129325520Y-92602151D01*
X129338133Y-92581107D01*
X129352747Y-92561402D01*
X129369223Y-92543223D01*
X129387402Y-92526747D01*
X129407107Y-92512133D01*
X129428151Y-92499520D01*
X129450329Y-92489030D01*
X129473429Y-92480765D01*
X129497227Y-92474804D01*
X129521496Y-92471204D01*
X129546000Y-92470000D01*
X130296000Y-92470000D01*
X130320504Y-92471204D01*
X130320504Y-92471204D01*
G37*
D11*
X129921000Y-93345000D03*
M02*
