G04 #@! TF.GenerationSoftware,KiCad,Pcbnew,5.1.2-f72e74a~84~ubuntu18.04.1*
G04 #@! TF.CreationDate,2019-09-15T12:12:38+02:00*
G04 #@! TF.ProjectId,Xt30_Hub,58743330-5f48-4756-922e-6b696361645f,rev?*
G04 #@! TF.SameCoordinates,Original*
G04 #@! TF.FileFunction,Soldermask,Top*
G04 #@! TF.FilePolarity,Negative*
%FSLAX46Y46*%
G04 Gerber Fmt 4.6, Leading zero omitted, Abs format (unit mm)*
G04 Created by KiCad (PCBNEW 5.1.2-f72e74a~84~ubuntu18.04.1) date 2019-09-15 12:12:38*
%MOMM*%
%LPD*%
G04 APERTURE LIST*
%ADD10C,0.100000*%
G04 APERTURE END LIST*
D10*
G36*
X130884687Y-96716796D02*
G01*
X131121453Y-96814868D01*
X131121455Y-96814869D01*
X131334539Y-96957247D01*
X131515753Y-97138461D01*
X131658132Y-97351547D01*
X131756204Y-97588313D01*
X131806200Y-97839661D01*
X131806200Y-98095939D01*
X131756204Y-98347287D01*
X131693552Y-98498541D01*
X131658131Y-98584055D01*
X131515753Y-98797139D01*
X131334539Y-98978353D01*
X131121455Y-99120731D01*
X131121454Y-99120732D01*
X131121453Y-99120732D01*
X130884687Y-99218804D01*
X130633339Y-99268800D01*
X130377061Y-99268800D01*
X130125713Y-99218804D01*
X129888947Y-99120732D01*
X129888946Y-99120732D01*
X129888945Y-99120731D01*
X129675861Y-98978353D01*
X129494647Y-98797139D01*
X129352269Y-98584055D01*
X129316848Y-98498541D01*
X129254196Y-98347287D01*
X129204200Y-98095939D01*
X129204200Y-97839661D01*
X129254196Y-97588313D01*
X129352268Y-97351547D01*
X129494647Y-97138461D01*
X129675861Y-96957247D01*
X129888945Y-96814869D01*
X129888947Y-96814868D01*
X130125713Y-96716796D01*
X130377061Y-96666800D01*
X130633339Y-96666800D01*
X130884687Y-96716796D01*
X130884687Y-96716796D01*
G37*
G36*
X162177487Y-96716796D02*
G01*
X162414253Y-96814868D01*
X162414255Y-96814869D01*
X162627339Y-96957247D01*
X162808553Y-97138461D01*
X162950932Y-97351547D01*
X163049004Y-97588313D01*
X163099000Y-97839661D01*
X163099000Y-98095939D01*
X163049004Y-98347287D01*
X162986352Y-98498541D01*
X162950931Y-98584055D01*
X162808553Y-98797139D01*
X162627339Y-98978353D01*
X162414255Y-99120731D01*
X162414254Y-99120732D01*
X162414253Y-99120732D01*
X162177487Y-99218804D01*
X161926139Y-99268800D01*
X161669861Y-99268800D01*
X161418513Y-99218804D01*
X161181747Y-99120732D01*
X161181746Y-99120732D01*
X161181745Y-99120731D01*
X160968661Y-98978353D01*
X160787447Y-98797139D01*
X160645069Y-98584055D01*
X160609648Y-98498541D01*
X160546996Y-98347287D01*
X160497000Y-98095939D01*
X160497000Y-97839661D01*
X160546996Y-97588313D01*
X160645068Y-97351547D01*
X160787447Y-97138461D01*
X160968661Y-96957247D01*
X161181745Y-96814869D01*
X161181747Y-96814868D01*
X161418513Y-96716796D01*
X161669861Y-96666800D01*
X161926139Y-96666800D01*
X162177487Y-96716796D01*
X162177487Y-96716796D01*
G37*
G36*
X142742786Y-95772603D02*
G01*
X142892611Y-95802405D01*
X143174875Y-95919322D01*
X143428906Y-96089060D01*
X143644942Y-96305096D01*
X143814680Y-96559127D01*
X143931597Y-96841391D01*
X143991201Y-97141041D01*
X143991201Y-97446561D01*
X143931597Y-97746211D01*
X143814680Y-98028475D01*
X143644942Y-98282506D01*
X143428906Y-98498542D01*
X143174875Y-98668280D01*
X142892611Y-98785197D01*
X142832574Y-98797139D01*
X142592962Y-98844801D01*
X142287440Y-98844801D01*
X142047828Y-98797139D01*
X141987791Y-98785197D01*
X141705527Y-98668280D01*
X141451496Y-98498542D01*
X141235460Y-98282506D01*
X141065722Y-98028475D01*
X140948805Y-97746211D01*
X140889201Y-97446561D01*
X140889201Y-97141041D01*
X140948805Y-96841391D01*
X141065722Y-96559127D01*
X141235460Y-96305096D01*
X141451496Y-96089060D01*
X141705527Y-95919322D01*
X141987791Y-95802405D01*
X142137616Y-95772603D01*
X142287440Y-95742801D01*
X142592962Y-95742801D01*
X142742786Y-95772603D01*
X142742786Y-95772603D01*
G37*
G36*
X156702201Y-98844801D02*
G01*
X153600201Y-98844801D01*
X153600201Y-95742801D01*
X156702201Y-95742801D01*
X156702201Y-98844801D01*
X156702201Y-98844801D01*
G37*
G36*
X150453786Y-95772603D02*
G01*
X150603611Y-95802405D01*
X150885875Y-95919322D01*
X151139906Y-96089060D01*
X151355942Y-96305096D01*
X151525680Y-96559127D01*
X151642597Y-96841391D01*
X151702201Y-97141041D01*
X151702201Y-97446561D01*
X151642597Y-97746211D01*
X151525680Y-98028475D01*
X151355942Y-98282506D01*
X151139906Y-98498542D01*
X150885875Y-98668280D01*
X150603611Y-98785197D01*
X150543574Y-98797139D01*
X150303962Y-98844801D01*
X149998440Y-98844801D01*
X149758828Y-98797139D01*
X149698791Y-98785197D01*
X149416527Y-98668280D01*
X149162496Y-98498542D01*
X148946460Y-98282506D01*
X148776722Y-98028475D01*
X148659805Y-97746211D01*
X148600201Y-97446561D01*
X148600201Y-97141041D01*
X148659805Y-96841391D01*
X148776722Y-96559127D01*
X148946460Y-96305096D01*
X149162496Y-96089060D01*
X149416527Y-95919322D01*
X149698791Y-95802405D01*
X149848616Y-95772603D01*
X149998440Y-95742801D01*
X150303962Y-95742801D01*
X150453786Y-95772603D01*
X150453786Y-95772603D01*
G37*
G36*
X138991201Y-98844801D02*
G01*
X135889201Y-98844801D01*
X135889201Y-95742801D01*
X138991201Y-95742801D01*
X138991201Y-98844801D01*
X138991201Y-98844801D01*
G37*
G36*
X133233604Y-92423347D02*
G01*
X133270144Y-92434432D01*
X133303821Y-92452433D01*
X133333341Y-92476659D01*
X133357567Y-92506179D01*
X133375568Y-92539856D01*
X133386653Y-92576396D01*
X133391000Y-92620538D01*
X133391000Y-94069462D01*
X133386653Y-94113604D01*
X133375568Y-94150144D01*
X133357567Y-94183821D01*
X133333341Y-94213341D01*
X133303821Y-94237567D01*
X133270144Y-94255568D01*
X133233604Y-94266653D01*
X133189462Y-94271000D01*
X132240538Y-94271000D01*
X132196396Y-94266653D01*
X132159856Y-94255568D01*
X132126179Y-94237567D01*
X132096659Y-94213341D01*
X132072433Y-94183821D01*
X132054432Y-94150144D01*
X132043347Y-94113604D01*
X132039000Y-94069462D01*
X132039000Y-92620538D01*
X132043347Y-92576396D01*
X132054432Y-92539856D01*
X132072433Y-92506179D01*
X132096659Y-92476659D01*
X132126179Y-92452433D01*
X132159856Y-92434432D01*
X132196396Y-92423347D01*
X132240538Y-92419000D01*
X133189462Y-92419000D01*
X133233604Y-92423347D01*
X133233604Y-92423347D01*
G37*
G36*
X130433604Y-92423347D02*
G01*
X130470144Y-92434432D01*
X130503821Y-92452433D01*
X130533341Y-92476659D01*
X130557567Y-92506179D01*
X130575568Y-92539856D01*
X130586653Y-92576396D01*
X130591000Y-92620538D01*
X130591000Y-94069462D01*
X130586653Y-94113604D01*
X130575568Y-94150144D01*
X130557567Y-94183821D01*
X130533341Y-94213341D01*
X130503821Y-94237567D01*
X130470144Y-94255568D01*
X130433604Y-94266653D01*
X130389462Y-94271000D01*
X129440538Y-94271000D01*
X129396396Y-94266653D01*
X129359856Y-94255568D01*
X129326179Y-94237567D01*
X129296659Y-94213341D01*
X129272433Y-94183821D01*
X129254432Y-94150144D01*
X129243347Y-94113604D01*
X129239000Y-94069462D01*
X129239000Y-92620538D01*
X129243347Y-92576396D01*
X129254432Y-92539856D01*
X129272433Y-92506179D01*
X129296659Y-92476659D01*
X129326179Y-92452433D01*
X129359856Y-92434432D01*
X129396396Y-92423347D01*
X129440538Y-92419000D01*
X130389462Y-92419000D01*
X130433604Y-92423347D01*
X130433604Y-92423347D01*
G37*
G36*
X156702201Y-91340801D02*
G01*
X153600201Y-91340801D01*
X153600201Y-88238801D01*
X156702201Y-88238801D01*
X156702201Y-91340801D01*
X156702201Y-91340801D01*
G37*
G36*
X150453786Y-88268603D02*
G01*
X150603611Y-88298405D01*
X150885875Y-88415322D01*
X151139906Y-88585060D01*
X151355942Y-88801096D01*
X151525680Y-89055127D01*
X151642597Y-89337391D01*
X151702201Y-89637041D01*
X151702201Y-89942561D01*
X151642597Y-90242211D01*
X151525680Y-90524475D01*
X151355942Y-90778506D01*
X151139906Y-90994542D01*
X150885875Y-91164280D01*
X150603611Y-91281197D01*
X150453786Y-91310999D01*
X150303962Y-91340801D01*
X149998440Y-91340801D01*
X149848616Y-91310999D01*
X149698791Y-91281197D01*
X149416527Y-91164280D01*
X149162496Y-90994542D01*
X148946460Y-90778506D01*
X148776722Y-90524475D01*
X148659805Y-90242211D01*
X148600201Y-89942561D01*
X148600201Y-89637041D01*
X148659805Y-89337391D01*
X148776722Y-89055127D01*
X148946460Y-88801096D01*
X149162496Y-88585060D01*
X149416527Y-88415322D01*
X149698791Y-88298405D01*
X149848616Y-88268603D01*
X149998440Y-88238801D01*
X150303962Y-88238801D01*
X150453786Y-88268603D01*
X150453786Y-88268603D01*
G37*
G36*
X142742786Y-88268603D02*
G01*
X142892611Y-88298405D01*
X143174875Y-88415322D01*
X143428906Y-88585060D01*
X143644942Y-88801096D01*
X143814680Y-89055127D01*
X143931597Y-89337391D01*
X143991201Y-89637041D01*
X143991201Y-89942561D01*
X143931597Y-90242211D01*
X143814680Y-90524475D01*
X143644942Y-90778506D01*
X143428906Y-90994542D01*
X143174875Y-91164280D01*
X142892611Y-91281197D01*
X142742786Y-91310999D01*
X142592962Y-91340801D01*
X142287440Y-91340801D01*
X142137616Y-91310999D01*
X141987791Y-91281197D01*
X141705527Y-91164280D01*
X141451496Y-90994542D01*
X141235460Y-90778506D01*
X141065722Y-90524475D01*
X140948805Y-90242211D01*
X140889201Y-89942561D01*
X140889201Y-89637041D01*
X140948805Y-89337391D01*
X141065722Y-89055127D01*
X141235460Y-88801096D01*
X141451496Y-88585060D01*
X141705527Y-88415322D01*
X141987791Y-88298405D01*
X142137616Y-88268603D01*
X142287440Y-88238801D01*
X142592962Y-88238801D01*
X142742786Y-88268603D01*
X142742786Y-88268603D01*
G37*
G36*
X138991201Y-91340801D02*
G01*
X135889201Y-91340801D01*
X135889201Y-88238801D01*
X138991201Y-88238801D01*
X138991201Y-91340801D01*
X138991201Y-91340801D01*
G37*
G36*
X130884687Y-87699796D02*
G01*
X131121453Y-87797868D01*
X131121455Y-87797869D01*
X131334539Y-87940247D01*
X131515753Y-88121461D01*
X131658132Y-88334547D01*
X131756204Y-88571313D01*
X131806200Y-88822661D01*
X131806200Y-89078939D01*
X131756204Y-89330287D01*
X131658132Y-89567053D01*
X131658131Y-89567055D01*
X131515753Y-89780139D01*
X131334539Y-89961353D01*
X131121455Y-90103731D01*
X131121454Y-90103732D01*
X131121453Y-90103732D01*
X130884687Y-90201804D01*
X130633339Y-90251800D01*
X130377061Y-90251800D01*
X130125713Y-90201804D01*
X129888947Y-90103732D01*
X129888946Y-90103732D01*
X129888945Y-90103731D01*
X129675861Y-89961353D01*
X129494647Y-89780139D01*
X129352269Y-89567055D01*
X129352268Y-89567053D01*
X129254196Y-89330287D01*
X129204200Y-89078939D01*
X129204200Y-88822661D01*
X129254196Y-88571313D01*
X129352268Y-88334547D01*
X129494647Y-88121461D01*
X129675861Y-87940247D01*
X129888945Y-87797869D01*
X129888947Y-87797868D01*
X130125713Y-87699796D01*
X130377061Y-87649800D01*
X130633339Y-87649800D01*
X130884687Y-87699796D01*
X130884687Y-87699796D01*
G37*
G36*
X162177487Y-87699796D02*
G01*
X162414253Y-87797868D01*
X162414255Y-87797869D01*
X162627339Y-87940247D01*
X162808553Y-88121461D01*
X162950932Y-88334547D01*
X163049004Y-88571313D01*
X163099000Y-88822661D01*
X163099000Y-89078939D01*
X163049004Y-89330287D01*
X162950932Y-89567053D01*
X162950931Y-89567055D01*
X162808553Y-89780139D01*
X162627339Y-89961353D01*
X162414255Y-90103731D01*
X162414254Y-90103732D01*
X162414253Y-90103732D01*
X162177487Y-90201804D01*
X161926139Y-90251800D01*
X161669861Y-90251800D01*
X161418513Y-90201804D01*
X161181747Y-90103732D01*
X161181746Y-90103732D01*
X161181745Y-90103731D01*
X160968661Y-89961353D01*
X160787447Y-89780139D01*
X160645069Y-89567055D01*
X160645068Y-89567053D01*
X160546996Y-89330287D01*
X160497000Y-89078939D01*
X160497000Y-88822661D01*
X160546996Y-88571313D01*
X160645068Y-88334547D01*
X160787447Y-88121461D01*
X160968661Y-87940247D01*
X161181745Y-87797869D01*
X161181747Y-87797868D01*
X161418513Y-87699796D01*
X161669861Y-87649800D01*
X161926139Y-87649800D01*
X162177487Y-87699796D01*
X162177487Y-87699796D01*
G37*
M02*
